<?xml version="1.0" encoding="UTF-8"?>
<svg width="20px" height="20px" viewBox="0 0 20 20" version="1.1" xmlns="http://www.w3.org/2000/svg" xmlns:xlink="http://www.w3.org/1999/xlink">
    <!-- Generator: Sketch 52.2 (67145) - http://www.bohemiancoding.com/sketch -->
    <title>银行卡</title>
    <desc>Created with Sketch.</desc>
    <g id="银行卡" stroke="none" stroke-width="1" fill="none" fill-rule="evenodd">
        <g>
            <rect id="Rectangle" fill-rule="nonzero" x="0" y="0" width="20" height="20"></rect>
            <g>
                <rect id="Rectangle" fill="#000000" opacity="0" x="0" y="0" width="20" height="20"></rect>
                <path d="M4.07617188,16.4257812 C2.54101562,16.4257812 1.29296875,15.1777344 1.29296875,13.6425781 L1.29296875,6.46679688 C1.29296875,4.93164062 2.54101562,3.68359375 4.07617188,3.68359375 L5.65429688,3.68359375 L5.65429688,4.66015625 L4.07617188,4.66015625 C3.08007812,4.66015625 2.26953125,5.47070312 2.26953125,6.46679688 L2.26953125,13.640625 C2.26953125,14.6367188 3.08007812,15.4472656 4.07617188,15.4472656 L15.9375,15.4472656 C16.9335938,15.4472656 17.7441406,14.6367188 17.7441406,13.640625 L17.7441406,6.46679688 C17.7441406,5.47070312 16.9335938,4.66015625 15.9375,4.66015625 L8.23632812,4.66015625 L8.23632812,3.68359375 L15.9375,3.68359375 C17.4726563,3.68359375 18.7207031,4.93164062 18.7207031,6.46679688 L18.7207031,13.640625 C18.7207031,15.1777344 17.4726563,16.4257812 15.9375,16.4257812 L4.07617188,16.4257812 Z M1.63671875,6.5 L18.2324219,6.5 L18.2324219,9.59179688 L1.63671875,9.59179688 L1.63671875,6.5 Z M15.2675781,13.7050781 L12.1796875,13.7050781 C11.8007812,13.7050781 11.5625,13.296875 11.75,12.9667969 L12.4648437,11.7070312 C12.5527344,11.5527344 12.7167969,11.4570312 12.8945312,11.4570312 L15.9824219,11.4570312 C16.3613281,11.4570312 16.5996094,11.8652344 16.4121094,12.1953125 L15.6972656,13.4550781 C15.609375,13.609375 15.4453125,13.7050781 15.2675781,13.7050781 Z" id="Shape" fill="#FBFBFB" fill-rule="nonzero"></path>
            </g>
        </g>
    </g>
</svg>